/* XPM */
static char * qt4_xpm[] = {
"26 26 295 2",
"  	c None",
". 	c #85B623",
"+ 	c #425911",
"@ 	c #99D029",
"# 	c #9ED32C",
"$ 	c #98CF28",
"% 	c #92C826",
"& 	c #85B723",
"* 	c #7EAC21",
"= 	c #455D12",
"- 	c #9ED42E",
"; 	c #CEF24F",
"> 	c #CBF14B",
", 	c #C3EB43",
"' 	c #B8E43B",
") 	c #ADDD34",
"! 	c #A2D62E",
"~ 	c #95CB28",
"{ 	c #88BA24",
"] 	c #80AF22",
"^ 	c #36490E",
"/ 	c #A4D735",
"( 	c #CDF05D",
"_ 	c #CDF05B",
": 	c #CDF158",
"< 	c #CEF156",
"[ 	c #CEF253",
"} 	c #CFF350",
"| 	c #CDF14B",
"1 	c #B7E33B",
"2 	c #AADC33",
"3 	c #9CD02B",
"4 	c #8ABD25",
"5 	c #82B222",
"6 	c #A6D83B",
"7 	c #CAED66",
"8 	c #CBED64",
"9 	c #CBEE63",
"0 	c #CCEE62",
"a 	c #CEF062",
"b 	c #D1F163",
"c 	c #D3F363",
"d 	c #D4F361",
"e 	c #D3F35D",
"f 	c #D1F357",
"g 	c #CFF250",
"h 	c #C8EF49",
"i 	c #BCE73F",
"j 	c #ADDD35",
"k 	c #84B424",
"l 	c #A6D73E",
"m 	c #C7EA6B",
"n 	c #C9EB6A",
"o 	c #CCED6C",
"p 	c #D2EF71",
"q 	c #CDE771",
"r 	c #B4CE67",
"s 	c #AAC661",
"t 	c #AFCB60",
"u 	c #C3E066",
"v 	c #D3F167",
"w 	c #CEF05F",
"x 	c #CCEF5A",
"y 	c #C4E653",
"z 	c #5C6C33",
"A 	c #3B2A55",
"B 	c #9360E4",
"C 	c #8858D0",
"D 	c #A5D63E",
"E 	c #C2E66C",
"F 	c #C4E76C",
"G 	c #C8E970",
"H 	c #D0ED76",
"I 	c #B7CC74",
"J 	c #92A56E",
"K 	c #93A670",
"L 	c #93A86E",
"M 	c #93A96B",
"N 	c #91A967",
"O 	c #A6BF68",
"P 	c #CDEB6E",
"Q 	c #C1E062",
"R 	c #889A4E",
"S 	c #3F3152",
"T 	c #8861C7",
"U 	c #A675F3",
"V 	c #9367D7",
"W 	c #A3D53D",
"X 	c #BEE36B",
"Y 	c #C0E46D",
"Z 	c #C9E973",
"` 	c #B9CE77",
" .	c #929D7D",
"..	c #95A080",
"+.	c #9BAA77",
"@.	c #B3C877",
"#.	c #B6CA77",
"$.	c #A0B175",
"%.	c #94A378",
"&.	c #A1B471",
"*.	c #9FB75C",
"=.	c #534660",
"-.	c #785CA4",
";.	c #9772D2",
">.	c #AB82EC",
",.	c #9E78D9",
"'.	c #A1D43B",
").	c #B8DF65",
"!.	c #BEE269",
"~.	c #C8E573",
"{.	c #939C80",
"].	c #9AA08F",
"^.	c #A0AF7A",
"/.	c #C9E674",
"(.	c #C7E771",
"_.	c #CBEA75",
":.	c #CFE77A",
"<.	c #AAB97B",
"[.	c #858D77",
"}.	c #645C69",
"|.	c #705794",
"1.	c #B593EB",
"2.	c #432F65",
"3.	c #B694EC",
"4.	c #A98ADA",
"5.	c #9ED337",
"6.	c #B2DC5C",
"7.	c #BBE163",
"8.	c #AEC36E",
"9.	c #989B93",
"0.	c #939887",
"a.	c #C0DE6C",
"b.	c #BBE164",
"c.	c #BEE267",
"d.	c #B6CE70",
"e.	c #8C9478",
"f.	c #BCD36F",
"g.	c #6B715D",
"h.	c #442E66",
"i.	c #AC92D6",
"j.	c #AE95D8",
"k.	c #766099",
"l.	c #C7ACF3",
"m.	c #C0A7EA",
"n.	c #9BD131",
"o.	c #ABD84F",
"p.	c #B7DF59",
"q.	c #95A467",
"r.	c #8E8F8C",
"s.	c #93A06F",
"t.	c #B9E05B",
"u.	c #B5DE58",
"v.	c #B3D062",
"w.	c #878B7D",
"x.	c #848781",
"y.	c #99B05A",
"z.	c #646F42",
"A.	c #271449",
"B.	c #B8A3DB",
"C.	c #D5C1F7",
"D.	c #D4C0F6",
"E.	c #D7C3F9",
"F.	c #D3BFF4",
"G.	c #98CF2A",
"H.	c #A3D53E",
"I.	c #B2DC49",
"J.	c #808C57",
"K.	c #7B7B7B",
"L.	c #8C9D59",
"M.	c #B3DD4A",
"N.	c #AED24D",
"O.	c #727763",
"P.	c #808180",
"Q.	c #879262",
"R.	c #ACD149",
"S.	c #71813E",
"T.	c #363635",
"U.	c #434E2A",
"V.	c #312446",
"W.	c #38205F",
"X.	c #DCCAF6",
"Y.	c #C8BBDE",
"Z.	c #97CF28",
"`.	c #9BD12B",
" +	c #AAD937",
".+	c #758542",
"++	c #636363",
"@+	c #768547",
"#+	c #B1D83F",
"$+	c #5B633F",
"%+	c #5F5F5F",
"&+	c #626262",
"*+	c #5C5D5A",
"=+	c #94AF3F",
"-+	c #7A8B40",
";+	c #4E5143",
">+	c #6B8C20",
",+	c #38441E",
"'+	c #351F58",
")+	c #C3B6D6",
"!+	c #A6D733",
"~+	c #869E3B",
"{+	c #515151",
"]+	c #515543",
"^+	c #B4D544",
"/+	c #545C39",
"(+	c #575E3E",
"_+	c #97AF43",
":+	c #4E4F4B",
"<+	c #505247",
"[+	c #595D46",
"}+	c #616D40",
"|+	c #8FBE29",
"1+	c #668B1B",
"2+	c #98D028",
"3+	c #A0D42F",
"4+	c #AAD13C",
"5+	c #41423B",
"6+	c #454545",
"7+	c #75853B",
"8+	c #B2D443",
"9+	c #A5CA3B",
"0+	c #B5DF3E",
"a+	c #8CA13F",
"b+	c #464645",
"c+	c #474747",
"d+	c #849E3A",
"e+	c #9ACF2B",
"f+	c #7FAF22",
"g+	c #36480E",
"h+	c #AAD936",
"i+	c #758935",
"j+	c #373737",
"k+	c #353534",
"l+	c #5A6630",
"m+	c #90AC38",
"n+	c #93B038",
"o+	c #647131",
"p+	c #323332",
"q+	c #313131",
"r+	c #526227",
"s+	c #9CD12B",
"t+	c #84B523",
"u+	c #35470E",
"v+	c #98D029",
"w+	c #9FD32E",
"x+	c #AED93A",
"y+	c #5D6C2C",
"z+	c #252525",
"A+	c #202020",
"B+	c #1E1E1E",
"C+	c #1D1D1D",
"D+	c #363C21",
"E+	c #4D5924",
"F+	c #759429",
"G+	c #9AD02A",
"H+	c #33450D",
"I+	c #ADDA39",
"J+	c #84A131",
"K+	c #46521F",
"L+	c #2D3417",
"M+	c #363F19",
"N+	c #677D26",
"O+	c #A6D137",
"P+	c #A4D333",
"Q+	c #9ED22D",
"R+	c #81B122",
"S+	c #33440D",
"T+	c #9DD22C",
"U+	c #A4D631",
"V+	c #ACDA38",
"W+	c #A9D835",
"X+	c #A1D430",
"Y+	c #9BD12A",
"Z+	c #7AA820",
"`+	c #9AD12A",
" @	c #8EC326",
".@	c #77A21F",
"+@	c #5D8019",
"@@	c #2A380B",
"#@	c #96CE28",
"$@	c #8BBF25",
"%@	c #719A1E",
"&@	c #547316",
"*@	c #2F410D",
"=@	c #405711",
"-@	c #95CD28",
";@	c #87B924",
">@	c #6B931C",
",@	c #4E6B15",
"'@	c #28370B",
")@	c #2E3F0C",
"!@	c #678D1B",
"~@	c #486213",
"{@	c #202C08",
"                                                    ",
"          .                                         ",
"        + @ # $ % & *                               ",
"        = - ; > , ' ) ! ~ { ]                       ",
"      ^ = / ( _ : < [ } | , 1 2 3 4 5               ",
"      ^ = 6 7 8 9 0 a b c d e f g h i j k           ",
"      ^ = l m m n o p q r s t u v w x y z A B C     ",
"      ^ = D E F G H I J K L M N O P Q R S T U V     ",
"      ^ = W X Y Z `  ...+.@.#.$.%.&.*.=.-.;.>.,.    ",
"      ^ = '.).!.~.{.].^./.(._.:.<.[.}.|.1.2.3.4.    ",
"      ^ = 5.6.7.8.9.0.a.b.c.d.e.f.g.h.i.j.k.l.m.    ",
"      ^ = n.o.p.q.r.s.t.u.v.w.x.y.z.A.B.C.D.E.F.    ",
"      ^ = G.H.I.J.K.L.M.N.O.P.Q.R.S.T.U.V.W.X.Y.    ",
"      ^ = Z.`. +.+++@+#+$+%+&+*+=+-+;+>+,+'+)+      ",
"      ^ = Z.@ !+~+{+]+^+/+(+_+:+<+[+}+|+1+          ",
"      ^ = Z.2+3+4+5+6+7+8+9+0+a+b+c+d+e+f+          ",
"      g+= Z.Z.`.h+i+j+k+l+m+n+o+p+q+r+s+t+          ",
"      u+= Z.Z.v+w+x+y+z+z+A+B+C+D+E+F+G+t+          ",
"      H+= Z.Z.Z.@ 3+I+J+K+L+M+N+O+P+Q+Z.R+          ",
"      S+= Z.Z.Z.Z.@ T+U+h+V+W+X+Y+@ Z.Z.Z+          ",
"      S+= Z.Z.Z.Z.Z.$ @ G+`+@ $ Z. @.@+@            ",
"      @@= Z.Z.Z.Z.Z.Z.Z.#@$@%@&@*@                  ",
"        =@Z.Z.Z.-@;@>@,@'@                          ",
"        )@t+!@~@{@                                  ",
"                                                    ",
"                                                    "};
